<?xml version="1.0" encoding="utf-8"?>
<!-- Generator: Adobe Illustrator 23.0.0, SVG Export Plug-In . SVG Version: 6.00 Build 0)  -->
<svg version="1.1" id="Layer_1" xmlns="http://www.w3.org/2000/svg" xmlns:xlink="http://www.w3.org/1999/xlink" x="0px" y="0px"
	 viewBox="0 0 406 306" style="enable-background:new 0 0 406 306;" xml:space="preserve">
<style type="text/css">
	.st0{opacity:0.3;fill:#E6E6E6;enable-background:new    ;}
	.st1{fill:#E6E6E6;}
	.st2{opacity:0.66;fill:#FFFFFF;enable-background:new    ;}
	.st3{fill:none;stroke:#A8A8A8;stroke-miterlimit:10;}
	.st4{fill:#A8A8A8;}
	.st5{opacity:0.32;fill:#A8A8A8;enable-background:new    ;}
	.st6{opacity:0.3;fill:#FFFFFF;enable-background:new    ;}
	.st7{fill:#C1C1C1;}
	.st8{opacity:0.51;fill:#C1C1C1;enable-background:new    ;}
	.st9{fill:#FFFFFF;}
	.st10{fill:#FFD200;}
	.st11{opacity:0.58;fill:#E44634;enable-background:new    ;}
	.st12{opacity:0.73;fill:#E44634;enable-background:new    ;}
	.st13{opacity:8.000000e-02;enable-background:new    ;}
	.st14{fill:#E44634;}
	.st15{fill:#24285B;}
</style>
<path class="st0" d="M127.2,57.2c-64.5,31-87.1,115.1-46.9,175.6c18,27.2,50.2,49.9,107.3,50.3c160.8,1,178.6-79.1,171.4-144.9
	C351.5,69.8,216.5,14.3,127.2,57.2z"/>
<path class="st1" d="M93.1,50.1h98.7c1.9,0,3.5,1.6,3.5,3.5v167.4c0,1.9-1.6,3.5-3.5,3.5H93.1c-1.9,0-3.5-1.6-3.5-3.5V53.5
	C89.6,51.6,91.2,50.1,93.1,50.1z"/>
<path class="st1" d="M222.8,86.3h100.8c1.3,0,2.4,1.1,2.4,2.4v169.4c0,1.3-1.1,2.4-2.4,2.4H222.8c-1.3,0-2.4-1.1-2.4-2.4V88.8
	C220.3,87.4,221.4,86.3,222.8,86.3z"/>
<path class="st2" d="M89.6,123.2c0,1,0.6,1.8,1.4,2.2l0.2,0.1c33.8,15.1,73,11.9,104-8.3l0,0V52.5c0-1.3-1.1-2.4-2.4-2.4H92.1
	c-1.3,0-2.4,1.1-2.4,2.4V123.2z"/>
<line class="st3" x1="229.2" y1="93.6" x2="237.1" y2="93.6"/>
<line class="st3" x1="229.2" y1="97.5" x2="237.1" y2="97.5"/>
<line class="st3" x1="229.2" y1="101.3" x2="237.1" y2="101.3"/>
<line class="st3" x1="98.2" y1="58.5" x2="106.1" y2="58.5"/>
<line class="st3" x1="98.2" y1="62.4" x2="106.1" y2="62.4"/>
<line class="st3" x1="98.2" y1="66.2" x2="106.1" y2="66.2"/>
<path class="st4" d="M260.8,95h26.6c1.3,0,2.4,1.1,2.4,2.4v0c0,1.3-1.1,2.4-2.4,2.4h-26.6c-1.3,0-2.4-1.1-2.4-2.4v0
	C258.3,96.1,259.4,95,260.8,95z"/>
<path class="st5" d="M131.1,59.9h26.6c1.3,0,2.4,1.1,2.4,2.4v0c0,1.3-1.1,2.4-2.4,2.4h-26.6c-1.3,0-2.4-1.1-2.4-2.4v0
	C128.7,61,129.8,59.9,131.1,59.9z"/>
<rect x="220.3" y="111.9" class="st6" width="105.6" height="129.9"/>
<path class="st7" d="M237.6,128.2h20.9c2.5,0,4.5,2,4.5,4.5v0c0,2.5-2,4.5-4.5,4.5h-20.9c-2.5,0-4.5-2-4.5-4.5v0
	C233.1,130.2,235.2,128.2,237.6,128.2z"/>
<path class="st7" d="M113.9,149h59.4c1.3,0,2.4,1.1,2.4,2.4v4.2c0,1.3-1.1,2.4-2.4,2.4h-59.4c-1.3,0-2.4-1.1-2.4-2.4v-4.2
	C111.5,150.1,112.6,149,113.9,149z"/>
<path class="st8" d="M121.1,166.9h45c1.3,0,2.4,1.1,2.4,2.4v4.2c0,1.3-1.1,2.4-2.4,2.4h-45c-1.3,0-2.4-1.1-2.4-2.4v-4.2
	C118.7,168,119.8,166.9,121.1,166.9z"/>
<path class="st9" d="M277.6,128.2h33c2.5,0,4.5,2,4.5,4.5v0c0,2.5-2,4.5-4.5,4.5h-33c-2.5,0-4.5-2-4.5-4.5v0
	C273,130.2,275.1,128.2,277.6,128.2z"/>
<path class="st7" d="M235.6,201.8h25c1.3,0,2.4,1.1,2.4,2.4v4.2c0,1.3-1.1,2.4-2.4,2.4h-25c-1.3,0-2.4-1.1-2.4-2.4v-4.2
	C233.1,202.9,234.2,201.8,235.6,201.8z"/>
<path class="st9" d="M275.5,201.8h37.2c1.3,0,2.4,1.1,2.4,2.4v4.2c0,1.3-1.1,2.4-2.4,2.4h-37.2c-1.3,0-2.4-1.1-2.4-2.4v-4.2
	C273,202.9,274.1,201.8,275.5,201.8z"/>
<path class="st7" d="M235.6,146.8h25c1.3,0,2.4,1.1,2.4,2.4v4.2c0,1.3-1.1,2.4-2.4,2.4h-25c-1.3,0-2.4-1.1-2.4-2.4v-4.2
	C233.1,147.9,234.2,146.8,235.6,146.8z"/>
<path class="st9" d="M275.5,146.8h29c1.3,0,2.4,1.1,2.4,2.4v4.2c0,1.3-1.1,2.4-2.4,2.4h-29c-1.3,0-2.4-1.1-2.4-2.4v-4.2
	C273,147.9,274.1,146.8,275.5,146.8z"/>
<path class="st7" d="M235.6,165.3h15.7c1.3,0,2.4,1.1,2.4,2.4v4.2c0,1.3-1.1,2.4-2.4,2.4h-15.7c-1.3,0-2.4-1.1-2.4-2.4v-4.2
	C233.1,166.4,234.2,165.3,235.6,165.3z"/>
<path class="st9" d="M275.5,165.3h37.2c1.3,0,2.4,1.1,2.4,2.4v4.2c0,1.3-1.1,2.4-2.4,2.4h-37.2c-1.3,0-2.4-1.1-2.4-2.4v-4.2
	C273,166.4,274.1,165.3,275.5,165.3z"/>
<path class="st7" d="M235.6,183.1h15.7c1.3,0,2.4,1.1,2.4,2.4v4.2c0,1.3-1.1,2.4-2.4,2.4h-15.7c-1.3,0-2.4-1.1-2.4-2.4v-4.2
	C233.1,184.2,234.2,183.1,235.6,183.1z"/>
<path class="st9" d="M275.5,183.1h23.8c1.3,0,2.4,1.1,2.4,2.4v4.2c0,1.3-1.1,2.4-2.4,2.4h-23.8c-1.3,0-2.4-1.1-2.4-2.4v-4.2
	C273,184.2,274.1,183.1,275.5,183.1z"/>
<path class="st10" d="M250.5,220.4h46.9c1.3,0,2.4,1.1,2.4,2.4v9.2c0,1.3-1.1,2.4-2.4,2.4h-46.9c-1.3,0-2.4-1.1-2.4-2.4v-9.2
	C248.1,221.4,249.2,220.4,250.5,220.4z"/>
<path class="st10" d="M120.6,190.6h46.9c1.3,0,2.4,1.1,2.4,2.4v9.2c0,1.3-1.1,2.4-2.4,2.4h-46.9c-1.3,0-2.4-1.1-2.4-2.4V193
	C118.2,191.6,119.3,190.6,120.6,190.6z"/>
<path class="st11" d="M134.9,103.9c0,0-14.6-4-17.8-17.6c0,0,22.6-4.6,23.3,18.8L134.9,103.9z"/>
<path class="st12" d="M136.7,102.4c0,0-10.2-16.1-1.2-31.2c0,0,17.2,10.9,9.6,31.3L136.7,102.4z"/>
<ellipse class="st13" cx="141.2" cy="122.7" rx="25.7" ry="5.5"/>
<path class="st14" d="M139.3,102.4c0,0,5.4-17,21.7-20.3c0,0,3,11.1-10.5,20.3H139.3z"/>
<polygon class="st15" points="128.7,102 131.7,122.3 150.3,122.4 153.1,102.1 "/>
<circle class="st10" cx="326" cy="241.9" r="12.5"/>
<path class="st9" d="M326,248.9c-0.7,0-1.4-0.6-1.4-1.4v-11.4c0-0.7,0.6-1.4,1.4-1.4c0.7,0,1.4,0.6,1.4,1.4v11.3
	C327.3,248.3,326.7,248.9,326,248.9C326,248.9,326,248.9,326,248.9z"/>
<path class="st9" d="M331.8,243.2h-11.4c-0.7,0-1.4-0.6-1.4-1.4s0.6-1.4,1.4-1.4h11.4c0.7,0,1.4,0.6,1.4,1.4
	S332.6,243.2,331.8,243.2z"/>
</svg>
