<?xml version="1.0" encoding="utf-8"?>
<!-- Generator: Adobe Illustrator 23.0.0, SVG Export Plug-In . SVG Version: 6.00 Build 0)  -->
<svg version="1.1" id="Calque_1" xmlns="http://www.w3.org/2000/svg" xmlns:xlink="http://www.w3.org/1999/xlink" x="0px" y="0px"
	 viewBox="0 0 2500 1402.5" style="enable-background:new 0 0 2500 1402.5;" xml:space="preserve">
<style type="text/css">
	.st0{clip-path:url(#SVGID_2_);}
	.st1{fill:#F2F6FE;}
	.st2{fill:#EBF0FC;}
	.st3{fill:#D6DAE5;}
</style>
<title>background_dark</title>
<g>
	<defs>
		<rect id="SVGID_1_" x="-500" y="-280.8" width="3500" height="1965.9"/>
	</defs>
	<clipPath id="SVGID_2_">
		<use xlink:href="#SVGID_1_"  style="overflow:visible;"/>
	</clipPath>
	<g class="st0">
		<rect x="-597.1" y="-421.6" class="st1" width="3498.2" height="1967.7"/>
		<g>
			<path class="st2" d="M-1089.5,800.7l141.6-27c142-26.3,424.8-81.3,703.7-143.8c278.6-63.2,552.5-135.6,788.4-282.4
				C780.5,201.5,978-20.7,1218.9-157.6s523.8-191.9,797.9-263.8c273.6-72.9,538.6-162.8,670.5-208.9l132.2-45.4L2848-620
				l-122.7,64.1l-613.6,320.4l-736.3,384.5L639.1,533.4L-97.3,917.9l-613.6,320.4l-122.7,64.1L-1089.5,800.7z"/>
			<polygon class="st2" points="2899.6,-661.4 -879.1,1233.7 -296,2368.1 3482.7,472.9 			"/>
		</g>
		<g>
			<polygon class="st3" points="3381.2,1114.6 -403,2002.2 -182.3,3259.5 3601.9,2371.9 			"/>
			<path class="st3" d="M-490.5,1594.3l155-56.2c155.2-55.5,465-169,782.4-240.6c317.1-72.7,641.8-103.4,964.3-146
				c322.7-41.4,643.3-94.7,955.3-196.4c311.8-102.8,614.9-254,766.3-331l151.5-76.2l107.4,602.5l-158.6,36.1l-793.1,180.3
				l-951.7,216.4l-951.7,216.4L-256.7,1980l-158.6,36.1L-490.5,1594.3z"/>
		</g>
	</g>
</g>
</svg>
