<?xml version="1.0" encoding="utf-8"?>
<!-- Generator: Adobe Illustrator 23.0.0, SVG Export Plug-In . SVG Version: 6.00 Build 0)  -->
<svg version="1.1" id="Layer_1" xmlns="http://www.w3.org/2000/svg" xmlns:xlink="http://www.w3.org/1999/xlink" x="0px" y="0px"
	 viewBox="0 0 667.8 298.5" style="enable-background:new 0 0 667.8 298.5;" xml:space="preserve">
<style type="text/css">
	.st0{opacity:0.32;fill:#C9C9C9;enable-background:new    ;}
	.st1{fill:#A5A5A5;}
	.st2{fill:#C9C9C9;}
	.st3{opacity:0.36;fill:#C9C9C9;enable-background:new    ;}
	.st4{fill:none;stroke:#A8A8A8;stroke-width:2;stroke-miterlimit:10;}
	.st5{opacity:0.45;fill:#E6E6E6;enable-background:new    ;}
	.st6{fill:#E44634;}
	.st7{fill:#E6E6E6;}
	.st8{fill:#24285B;}
	.st9{fill:#FFFFFF;}
	.st10{fill:#FFD200;}
	.st11{fill:none;stroke:#FFFFFF;stroke-width:4;stroke-linecap:round;stroke-linejoin:round;}
	.st12{opacity:0.17;fill:#FFFFFF;enable-background:new    ;}
	.st13{opacity:9.000000e-02;enable-background:new    ;}
	.st14{opacity:0.44;fill:#FFFFFF;enable-background:new    ;}
	.st15{fill:#F4A28C;}
	.st16{opacity:0.31;fill:#CE8172;enable-background:new    ;}
	.st17{opacity:0.58;fill:#E44634;enable-background:new    ;}
	.st18{opacity:0.73;fill:#E44634;enable-background:new    ;}
</style>
<polygon class="st0" points="500.4,174.6 478.2,122.7 492.7,122.7 464.7,62.7 480.2,62.7 451.6,4.6 419.9,62.7 433.6,62.7 
	402.6,122.7 419.5,122.7 394.8,174.6 "/>
<rect x="440.2" y="174.6" class="st1" width="19.7" height="68.6"/>
<circle class="st2" cx="460.7" cy="119.6" r="4"/>
<circle class="st3" cx="473.6" cy="24.3" r="4"/>
<circle class="st3" cx="444.1" cy="227.9" r="4"/>
<circle class="st2" cx="523.1" cy="130.7" r="4"/>
<circle class="st3" cx="538.2" cy="181" r="4"/>
<line class="st4" x1="513.6" y1="33.9" x2="528.1" y2="33.9"/>
<line class="st4" x1="513.6" y1="39.6" x2="528.1" y2="39.6"/>
<line class="st4" x1="513.6" y1="45.2" x2="528.1" y2="45.2"/>
<polygon class="st0" points="230.9,190.1 215.1,155 225.4,155 205.6,114.3 216.5,114.3 196.3,75 173.9,114.3 183.6,114.3 161.7,155 
	173.6,155 156.2,190.1 "/>
<rect x="188.3" y="190.1" class="st1" width="13.9" height="46.4"/>
<ellipse class="st5" cx="323.2" cy="259" rx="293.4" ry="27.4"/>
<rect x="275.5" y="184.8" class="st1" width="17.2" height="57.4"/>
<polygon class="st2" points="286,246.3 278.6,233.6 287.5,238.1 292.1,223.6 296,236.7 305.1,231.6 303.6,240.8 314.6,241.4 
	307.5,246.3 "/>
<circle class="st2" cx="20.6" cy="123.4" r="4"/>
<circle class="st2" cx="129.8" cy="27.1" r="4"/>
<circle class="st2" cx="357.2" cy="242.2" r="4"/>
<circle class="st2" cx="357.2" cy="46.2" r="4"/>
<circle class="st3" cx="33.5" cy="28.1" r="4"/>
<ellipse transform="matrix(0.2298 -0.9732 0.9732 0.2298 156.6943 254.1459)" class="st3" cx="238.9" cy="28.1" rx="4" ry="4"/>
<circle class="st3" cx="345.2" cy="134.9" r="4"/>
<circle class="st3" cx="148.5" cy="128.7" r="4"/>
<circle class="st3" cx="4" cy="231.7" r="4"/>
<circle class="st2" cx="83" cy="134.5" r="4"/>
<circle class="st3" cx="98.1" cy="184.8" r="4"/>
<polygon class="st2" points="262.7,242.5 255.3,229.8 264.2,234.4 268.7,219.9 272.7,232.9 281.7,227.9 280.2,237.1 291.2,237.7 
	284.2,242.5 "/>
<polygon class="st2" points="184.7,238.5 177.3,225.8 186.2,230.4 190.7,215.9 194.7,229 203.7,223.9 202.2,233.1 213.2,233.7 
	206.1,238.5 "/>
<path class="st6" d="M492.7,253.4c0,0,3.2,3,6.6,1.6c3.5-1.4,6,1.4,3.4,3.8s-12.2,2.5-12.2,2.5l-2.9-6.2L492.7,253.4z"/>
<path class="st6" d="M438.9,252c0,0-1.6,4.1,1,6.8c2.6,2.7,1,6.1-2.2,4.6c-3.2-1.5-6.9-10.4-6.9-10.4l4.7-5L438.9,252z"/>
<path class="st7" d="M508.2,23.9h146.9c3.5,0,6.3,2.8,6.3,6.3v171.3c0,3.5-2.8,6.3-6.3,6.3H508.2c-3.5,0-6.3-2.8-6.3-6.3V30.1
	C501.9,26.7,504.7,23.9,508.2,23.9z"/>
<path class="st8" d="M529.6,62.2H637c2,0,3.7,1.6,3.7,3.7v26.5c0,2-1.6,3.7-3.7,3.7H529.6c-2,0-3.7-1.6-3.7-3.7V65.9
	C525.9,63.9,527.6,62.2,529.6,62.2z"/>
<path class="st9" d="M553.7,33.9h80.9c3.4,0,6.2,2.8,6.2,6.2v0c0,3.4-2.8,6.2-6.2,6.2h-80.9c-3.4,0-6.2-2.8-6.2-6.2v0
	C547.6,36.7,550.3,33.9,553.7,33.9z"/>
<circle class="st10" cx="546.8" cy="79.3" r="12.2"/>
<polyline class="st11" points="542.3,79.4 545.4,83.9 551.9,75.6 "/>
<path class="st12" d="M570.9,71.7h43c1.5,0,2.7,1.2,2.7,2.7v0c0,1.5-1.2,2.7-2.7,2.7h-43c-1.5,0-2.7-1.2-2.7-2.7v0
	C568.2,72.9,569.4,71.7,570.9,71.7z"/>
<path class="st12" d="M570.9,82.4h24.9c1.5,0,2.7,1.2,2.7,2.7l0,0c0,1.5-1.2,2.7-2.7,2.7h-24.9c-1.5,0-2.7-1.2-2.7-2.7l0,0
	C568.2,83.6,569.4,82.4,570.9,82.4z"/>
<path class="st8" d="M529.7,105.9h107.2c2.1,0,3.8,1.7,3.8,3.8v26.2c0,2.1-1.7,3.8-3.8,3.8H529.7c-2.1,0-3.8-1.7-3.8-3.8v-26.2
	C525.9,107.6,527.6,105.9,529.7,105.9z"/>
<circle class="st12" cx="546.8" cy="123" r="12.2"/>
<path class="st12" d="M570.9,115.4h43c1.5,0,2.7,1.2,2.7,2.7l0,0c0,1.5-1.2,2.7-2.7,2.7h-43c-1.5,0-2.7-1.2-2.7-2.7l0,0
	C568.2,116.6,569.4,115.4,570.9,115.4z"/>
<path class="st12" d="M570.9,126.1h24.9c1.5,0,2.7,1.2,2.7,2.7l0,0c0,1.5-1.2,2.7-2.7,2.7h-24.9c-1.5,0-2.7-1.2-2.7-2.7l0,0
	C568.2,127.3,569.4,126.1,570.9,126.1z"/>
<path class="st8" d="M528,149.6h110.7c1.1,0,2,0.9,2,2v29.7c0,1.1-0.9,2-2,2H528c-1.1,0-2-0.9-2-2v-29.7
	C525.9,150.5,526.9,149.6,528,149.6z"/>
<circle class="st12" cx="546.8" cy="166.6" r="12.2"/>
<path class="st12" d="M570.9,159h43c1.5,0,2.7,1.2,2.7,2.7v0c0,1.5-1.2,2.7-2.7,2.7h-43c-1.5,0-2.7-1.2-2.7-2.7v0
	C568.2,160.2,569.4,159,570.9,159z"/>
<path class="st12" d="M570.9,169.8h24.9c1.5,0,2.7,1.2,2.7,2.7v0c0,1.5-1.2,2.7-2.7,2.7h-24.9c-1.5,0-2.7-1.2-2.7-2.7v0
	C568.2,171,569.4,169.8,570.9,169.8z"/>
<polygon class="st2" points="435.1,246.2 424.6,227.4 437.3,234.1 443.7,212.7 449.2,232 462.1,224.6 459.9,238.1 475.5,239 
	465.5,246.2 "/>
<path class="st8" d="M430.3,175.2c0,0-3.3,13.3,2.5,19.9s14.9,37.7,0,53.2l5.9,5.5c0,0,25.7-13.1,18.4-60.5l18.4-18.2L430.3,175.2z"
	/>
<path class="st13" d="M537.9,117.8c0,0,9,15.1-4.1,19.6c0,0-4.1,45.4-31.8,53.3v-15.5l21.8-46.5L537.9,117.8z"/>
<path class="st6" d="M475.5,99.2c0,0,18.2,4.6,18.3,19.7s-8.1,41.4,3.6,43.5s18.7-30.4,18.7-30.4l8.4,3.4c0,0-8.9,55.6-39.5,46.4
	S475.5,99.2,475.5,99.2z"/>
<path class="st14" d="M475.5,99.2c0,0,18.2,4.6,18.3,19.7s-8.1,41.4,3.6,43.5s18.7-30.4,18.7-30.4l8.4,3.4c0,0-8.9,55.6-39.5,46.4
	S475.5,99.2,475.5,99.2z"/>
<polygon class="st15" points="459.1,74.5 453.6,94 464.6,96.3 464.2,81.2 "/>
<path class="st16" d="M464.4,84.5c-1.3-0.5-2.5-1.4-3.3-2.6c0,0-0.3,3.7,3.3,7.8L464.4,84.5z"/>
<path class="st6" d="M453.6,94l6.5,1.3c0,0,29.8,3.2,31,20c1.2,16.8-15.6,59.8-15.6,59.8h-45.1C430.3,175.2,394.2,89.6,453.6,94z"/>
<path class="st13" d="M449.7,109.6c0,0,3.6,10.5-5.9,17.4c-9.5,6.9-4.9,32.6,5.5,36.8s-6.5,13.1-13.8,9.4s-8.3-6.1-8.3-6.1
	s-6.7-19.4-7.4-31.8C419.2,123,449.7,109.6,449.7,109.6z"/>
<rect x="421" y="163" transform="matrix(0.2396 -0.9709 0.9709 0.2396 162.4643 560.7473)" class="st10" width="36.4" height="27.2"/>
<path class="st13" d="M445.9,178.5c0,0,1.7,4.2-4.2,5c-5.9,0.9-18.3,0-18.3,0l2-8.3L445.9,178.5z"/>
<path class="st6" d="M449.7,109.6c0-9.2-9.4-15.6-18.1-12.7c-7.6,2.5-17,7.1-22.6,15.7c-10.9,16.3-35.8,64.1,27.4,65.9l1.9-7
	c0,0-37.9-10.5-21.2-32.7C430,121.6,449.7,122.7,449.7,109.6z"/>
<path class="st14" d="M449.7,109.6c0-9.2-9.4-15.6-18.1-12.7c-7.6,2.5-17,7.1-22.6,15.7c-10.9,16.3-35.8,64.1,27.4,65.9l1.9-7
	c0,0-37.9-10.5-21.2-32.7C430,121.6,449.7,122.7,449.7,109.6z"/>
<path class="st15" d="M518,132.9c0,0,0.5-8,3.7-10.3c3.2-2.3,2.7,3.5,2.7,3.5s3.2-3.8,5.9-2s-5.9,11.4-5.9,11.4L518,132.9z"/>
<path class="st15" d="M470.5,75.1c0,0-0.5,6.2-2.3,10c-0.7,1.6-2.6,2.3-4.1,1.5c0,0,0,0,0,0c-2.5-1-4.2-3.3-4.4-6l-0.9-5.7
	c-0.1-2.4,1.3-4.5,3.5-5.4C466.1,67.7,471,71.3,470.5,75.1z"/>
<path class="st15" d="M469.9,79l1.3,2.6c0.2,0.5,0,1.1-0.5,1.3c-0.1,0-0.2,0.1-0.4,0.1h-2.4L469.9,79z"/>
<circle class="st10" cx="525.7" cy="117.8" r="12.2"/>
<polyline class="st11" points="521.2,117.9 524.3,122.4 530.8,114.1 "/>
<path class="st8" d="M475.5,175.2l18.9,78.7l-9.4,1.4c0,0-18.9-53.9-31.3-65L475.5,175.2z"/>
<path class="st15" d="M437.9,172.4c0,0,6.7-1.1,9,3.6c2.3,4.7-10.6,2.5-10.6,2.5L437.9,172.4z"/>
<path class="st17" d="M388.1,230.4c0,0-7.4-2-9-8.9c0,0,11.4-2.3,11.7,9.5L388.1,230.4z"/>
<path class="st18" d="M389,229.4c0,0-5.3-8.4-0.6-16.2c0,0,8.9,5.7,4.9,16.2L389,229.4z"/>
<path class="st6" d="M390.4,229.5c0,0,2.8-8.8,11.2-10.5c0,0,1.6,5.7-5.5,10.5L390.4,229.5z"/>
<polygon class="st8" points="385,229.5 386.5,239.7 395.9,239.8 397.3,229.6 "/>
<path class="st8" d="M457.3,81l3.8-0.9l2.3-1.1c0,0,1.7-0.1,1-4.1c0,0,8.1,2.8,9.1-2c1.2-5.2-4.9-7.6-9.1-7.1
	c-2.5,0.3-4.7,2-5.6,4.4C458.8,70.1,452.1,69,457.3,81z"/>
<path class="st15" d="M463.1,79.1c0,0,0.4-2.4-1.4-2.5c-1.8-0.1-2.4,3.3,0,4L463.1,79.1z"/>
<polygon class="st0" points="332.6,184.8 312.2,137.3 325.5,137.3 299.8,82.5 314,82.5 287.8,29.3 258.6,82.5 271.2,82.5 
	242.7,137.3 258.2,137.3 235.6,184.8 "/>
</svg>
