<?xml version="1.0" encoding="utf-8"?>
<!-- Generator: Adobe Illustrator 23.0.0, SVG Export Plug-In . SVG Version: 6.00 Build 0)  -->
<svg version="1.1" id="Layer_1" xmlns="http://www.w3.org/2000/svg" xmlns:xlink="http://www.w3.org/1999/xlink" x="0px" y="0px"
	 viewBox="0 0 406 306" style="enable-background:new 0 0 406 306;" xml:space="preserve">
<style type="text/css">
	.st0{opacity:0.45;fill:#E6E6E6;enable-background:new    ;}
	.st1{fill:#F4A28C;}
	.st2{opacity:0.19;fill:#E44634;enable-background:new    ;}
	.st3{opacity:0.51;fill:#E44634;enable-background:new    ;}
	.st4{fill:#E44634;}
	.st5{fill:#24285B;}
	.st6{fill:#FFFFFF;}
	.st7{opacity:7.000000e-02;fill:#242426;enable-background:new    ;}
	.st8{fill:#E6E6E6;}
	.st9{fill:#FFD200;}
	.st10{opacity:8.000000e-02;enable-background:new    ;}
	.st11{opacity:0.12;enable-background:new    ;}
</style>
<ellipse class="st0" cx="210.7" cy="260.7" rx="167.2" ry="11.6"/>
<path class="st1" d="M113.6,183.4l-9,28.7c-2.5,7.8-8.1,14.3-15.5,17.8l-13.2,6.3l0.5,3.9l19.8-4.3c9.4-2.8,17.1-9.4,21.4-18.1
	l13.9-28.7L113.6,183.4z"/>
<path class="st2" d="M304.7,249.1c0,0-9.1-2.5-11-10.9c0,0,14-2.8,14.4,11.7L304.7,249.1z"/>
<path class="st3" d="M305.8,248.2c0,0-6.3-10-0.8-19.4c0,0,10.7,6.8,5.9,19.4L305.8,248.2z"/>
<path class="st4" d="M307.5,248.2c0,0,3.3-10.6,13.5-12.6c0,0,1.9,6.9-6.5,12.6L307.5,248.2z"/>
<polygon class="st5" points="300.9,248 302.7,260.5 314.3,260.6 316,248 "/>
<path class="st6" d="M189,95.2h92.8c1.9,0,3.4,1.5,3.4,3.4v158.8c0,1.9-1.5,3.4-3.4,3.4H189c-1.9,0-3.4-1.5-3.4-3.4V98.5
	C185.7,96.7,187.2,95.2,189,95.2z"/>
<path class="st6" d="M181.7,45.9l91.6-15.1c1.8-0.3,3.6,0.9,3.9,2.8l5.1,31.1c0.3,1.8-0.9,3.6-2.8,3.9L188,83.7
	c-1.8,0.3-3.6-0.9-3.9-2.8L179,49.8C178.7,48,179.9,46.2,181.7,45.9z"/>
<path class="st4" d="M200.4,32.3l52-8.4c1.8-0.3,3.6,1,3.9,2.8L257,31c0.3,1.8-1,3.6-2.8,3.9l-52,8.4c-1.8,0.3-3.6-1-3.9-2.8
	l-0.7-4.3C197.3,34.3,198.6,32.6,200.4,32.3z"/>
<path class="st7" d="M203.3,144.5h64.1c5.2,0,9.4,4.2,9.4,9.4v7.6c0,5.2-4.2,9.4-9.4,9.4h-64.1c-5.2,0-9.4-4.2-9.4-9.4v-7.6
	C193.9,148.7,198.1,144.5,203.3,144.5z"/>
<ellipse transform="matrix(0.1602 -0.9871 0.9871 0.1602 64.0549 390.8082)" class="st4" cx="261.7" cy="157.8" rx="7.1" ry="7.1"/>
<path class="st8" d="M205.7,154.4h35c1.9,0,3.4,1.5,3.4,3.4v0c0,1.9-1.5,3.4-3.4,3.4h-35c-1.9,0-3.4-1.5-3.4-3.4v0
	C202.4,155.9,203.9,154.4,205.7,154.4z"/>
<path class="st7" d="M203.3,105.9h64.1c5.2,0,9.4,4.2,9.4,9.4v7.6c0,5.2-4.2,9.4-9.4,9.4h-64.1c-5.2,0-9.4-4.2-9.4-9.4v-7.6
	C193.9,110.1,198.1,105.9,203.3,105.9z"/>
<circle class="st4" cx="261.7" cy="119.2" r="7.1"/>
<path class="st8" d="M205.7,115.8h35c1.9,0,3.4,1.5,3.4,3.4v0c0,1.9-1.5,3.4-3.4,3.4h-35c-1.9,0-3.4-1.5-3.4-3.4v0
	C202.4,117.3,203.9,115.8,205.7,115.8z"/>
<path class="st7" d="M197.3,50l63.4-10.3c5.2-0.8,10,2.7,10.8,7.8l1.2,7.5c0.8,5.2-2.7,10-7.8,10.8l-63.4,10.3
	c-5.2,0.8-10-2.7-10.8-7.8l-1.2-7.5C188.7,55.7,192.2,50.9,197.3,50z"/>
<circle class="st4" cx="256.6" cy="53.1" r="7.1"/>
<path class="st8" d="M200.8,58.8l34.6-5.7c1.8-0.3,3.6,0.9,3.9,2.8v0c0.3,1.8-0.9,3.6-2.8,3.9l-34.6,5.7c-1.8,0.3-3.6-0.9-3.9-2.8
	l0,0C197.7,60.8,199,59.1,200.8,58.8z"/>
<path class="st7" d="M203.3,184.7h64.1c5.2,0,9.4,4.2,9.4,9.4v7.6c0,5.2-4.2,9.4-9.4,9.4h-64.1c-5.2,0-9.4-4.2-9.4-9.4v-7.6
	C193.9,189,198.1,184.7,203.3,184.7z"/>
<ellipse transform="matrix(0.1602 -0.9871 0.9871 0.1602 24.3298 424.6065)" class="st4" cx="261.7" cy="198" rx="7.1" ry="7.1"/>
<path class="st8" d="M205.7,194.6h35c1.9,0,3.4,1.5,3.4,3.4v0c0,1.9-1.5,3.4-3.4,3.4h-35c-1.9,0-3.4-1.5-3.4-3.4v0
	C202.4,196.1,203.9,194.6,205.7,194.6z"/>
<path class="st7" d="M203.3,225h64.1c5.2,0,9.4,4.2,9.4,9.4v7.6c0,5.2-4.2,9.4-9.4,9.4h-64.1c-5.2,0-9.4-4.2-9.4-9.4v-7.6
	C193.9,229.2,198.1,225,203.3,225z"/>
<ellipse transform="matrix(0.1602 -0.9871 0.9871 0.1602 -15.3953 458.4047)" class="st4" cx="261.7" cy="238.2" rx="7.1" ry="7.1"/>
<path class="st8" d="M205.7,234.9h35c1.9,0,3.4,1.5,3.4,3.4v0c0,1.9-1.5,3.4-3.4,3.4h-35c-1.9,0-3.4-1.5-3.4-3.4v0
	C202.4,236.4,203.9,234.9,205.7,234.9z"/>
<polygon class="st1" points="143.3,191.5 147.6,253 143.6,254.4 128,196.8 "/>
<path class="st4" d="M148.4,254.1c0,0,0.9,3.6,3.6,4.8s1.4,5.1-2.8,2.7c-1.3-0.7-2.5-1.6-3.7-2.6c-1.1-0.8-2.4-1.4-3.7-1.6
	c-0.5-0.1-0.9-0.5-1-1c-0.6-2,4-3.9,4-3.9L148.4,254.1z"/>
<path class="st4" d="M76.4,240.1c0,0-2.8,2.1-2.7,4.9c0.1,2.8-3.8,3.1-3.4-1.3c0.1-1.4,0.4-2.7,0.8-4.1c0.3-1.2,0.3-2.5-0.1-3.8
	c-0.1-0.5,0.1-1,0.5-1.3c1.5-1.2,4.9,1.9,4.9,1.9L76.4,240.1z"/>
<polygon class="st1" points="119.8,102.3 121.2,108.2 116.4,110.7 115.6,100.6 "/>
<path class="st1" d="M114.5,94.9c0.9-1.8,3.1-2.4,4.9-1.5c0.4,0.2,0.8,0.6,1.1,1c1.8,2.2,3.9,5.7,1,7.3c-4.3,2.4-7.6-3-7.6-3
	C113.7,97.3,113.9,96,114.5,94.9z"/>
<rect x="73.5" y="121" transform="matrix(0.7883 -0.6152 0.6152 0.7883 -66.9975 82.0822)" class="st9" width="24.6" height="34.8"/>
<path class="st1" d="M94.8,120.8c0,0-20.7,32.3-16.5,37.1C91.4,173,120.5,139,120.5,139L94.8,120.8z"/>
<path class="st4" d="M141.5,116c-12.2-8.9-28.6-9.2-41-0.7c-5.4,3.7-9.6,9.1-7.7,17.2c4.5,18.7,18.8,31,19.3,47.4l33.9-2.3v-21.2
	c0-4,1.7-7.9,4.6-10.7c3-2.7,5.9-7.2,3.9-13.3C152.6,127.1,148,120.8,141.5,116z"/>
<path class="st1" d="M117.2,98.6c0,0-1-1-1.5,0.2s1.2,1.9,1.8,1.4C118,99.7,117.2,98.6,117.2,98.6z"/>
<path class="st10" d="M124.7,124.8c0,0-7.3,14,1.2,27.6s-7.6,27-7.6,27l27.6-1.9v-12.1c0,0-1.7-15.2,3.6-18.7c0,0,9-6.5,4.2-16.3
	S124.7,124.8,124.7,124.8"/>
<path class="st5" d="M110.6,116.5c0.6-2.5,3.7-7.1-0.6-15.4c-0.9-1.8-1.6-5.9,0.1-8.7c4.1-6.8,10.5-4.5,9.8-0.7
	c-0.8,3.8-1.3,5.6-1.3,5.6s12.3,8.8,10.5,15.3C127.5,118.4,107.9,127,110.6,116.5z"/>
<polygon class="st5" points="110.6,171.2 145.9,171.2 151.6,220.1 99.1,217.8 "/>
<path class="st1" d="M126.1,134.7c-3.5-4.2-2.9-10.5,1.4-14c0,0,0.1-0.1,0.1-0.1c2-1.6,4.2-3,6.5-4.3c13.5-7.7,35.9-24.8,45.4-48.3
	c0,0,2.2-8.6,8.8-8.3s4.3,8.5-2.2,8.4c0,0-5.3,51.1-44.6,70.1C136.1,140.7,129.8,139.3,126.1,134.7L126.1,134.7z"/>
<polygon class="st8" points="101.5,49.5 101.5,68.1 113.5,68.1 116.2,75.5 119.3,68.1 131.4,68.1 131.4,49.5 "/>
<path class="st11" d="M114.9,62.9L114.9,62.9c-0.3,0-0.5-0.1-0.7-0.4l-3.2-4.1c-0.3-0.4-0.2-1,0.2-1.3c0.4-0.3,0.9-0.2,1.3,0.2
	l2.5,3.2l6.1-6.6c0.3-0.4,0.9-0.4,1.3-0.1s0.4,0.9,0.1,1.3c0,0,0,0,0,0l-6.9,7.4C115.4,62.9,115.2,63,114.9,62.9z"/>
</svg>
