<?xml version="1.0" encoding="utf-8"?>
<!-- Generator: Adobe Illustrator 23.0.0, SVG Export Plug-In . SVG Version: 6.00 Build 0)  -->
<svg version="1.1" id="Layer_1" xmlns="http://www.w3.org/2000/svg" xmlns:xlink="http://www.w3.org/1999/xlink" x="0px" y="0px"
	 viewBox="0 0 406 306" style="enable-background:new 0 0 406 306;" xml:space="preserve">
<style type="text/css">
	.st0{fill:#242426;}
	.st1{fill:#1C1C1E;}
	.st2{fill:#24285B;}
	.st3{opacity:0.4;fill:#A5A5A5;enable-background:new    ;}
	.st4{fill:#F4A28C;}
	.st5{fill:#E44634;}
	.st6{opacity:0.2;fill:#FFFFFF;enable-background:new    ;}
	.st7{opacity:8.000000e-02;enable-background:new    ;}
	.st8{opacity:0.45;fill:#E6E6E6;enable-background:new    ;}
	.st9{opacity:0.31;fill:#CE8172;enable-background:new    ;}
	.st10{fill:#FFD200;}
	.st11{fill:#FFFFFF;}
	.st12{fill:#A5A5A5;}
	.st13{opacity:0.13;fill:#FFFFFF;enable-background:new    ;}
	.st14{opacity:0.58;fill:#E44634;enable-background:new    ;}
	.st15{opacity:0.73;fill:#E44634;enable-background:new    ;}
</style>
<title>#13 authentication</title>
<path class="st0" d="M323.2,204H103c-4.2,0-7.6-3.4-7.6-7.6V43.8c0-4.2,3.4-7.6,7.6-7.6h220.2c4.2,0,7.6,3.4,7.6,7.6v152.6
	C330.8,200.6,327.4,204,323.2,204z"/>
<path class="st1" d="M177.7,142.6H247c2.4,0,4.4,2,4.4,4.4v10c0,2.4-2,4.4-4.4,4.4h-69.4c-2.4,0-4.4-2-4.4-4.4v-10
	C173.3,144.6,175.2,142.6,177.7,142.6z"/>
<circle class="st2" cx="187.3" cy="152.2" r="2.3"/>
<circle class="st2" cx="199.6" cy="152.2" r="2.3"/>
<circle class="st2" cx="212.7" cy="152.2" r="2.3"/>
<circle class="st2" cx="225" cy="152.2" r="2.3"/>
<circle class="st2" cx="237.3" cy="152.2" r="2.3"/>
<rect x="182.1" y="82.9" class="st3" width="59.7" height="41.5"/>
<path class="st4" d="M129.9,182.2c0,0,4.3,20.1,15.8,19c11.4-1,15.2-33.7,15.2-33.7l-4.2-3.9L129.9,182.2z"/>
<path class="st5" d="M118.8,136.9c0,0,24.6,3.7,27,30.7l-16.2,6.9L118.8,136.9z"/>
<path class="st6" d="M129.6,174.4l-10.8-37.6c0,0,24.6,3.7,27,30.7"/>
<path class="st7" d="M213.1,140.7l7.2,12l-9.7,5.5l-7.9-14.2l-10.9,5.5l8.1,15.2l-10.3,6l-7.3-12.5l-5.1,3.8c-3,2.3-4.7,5.9-4.5,9.7
	c0.5,8.3,0.5,23.1-4.6,31.9l-34,0.3l3.9-31.1l-36.6-33.8L97,124.2l-2.9-13.7l6.5-3.5c2.1-1.1,4.6-0.9,6.4,0.5c2.4,1.8,4.8,5,3.4,9.9
	c-2.5,8.7-1.1,18.3,4.6,19.6c5.7,1.3,29-5.7,34.2,7.3c5.2,13,7.9,14.1,20.4,3.8c12.5-10.3,33.3-20.5,33.3-20.5L213.1,140.7z"/>
<ellipse class="st8" cx="211.9" cy="266.8" rx="157.6" ry="11.5"/>
<path class="st5" d="M95.3,258.4c0,0-2,2.5-0.8,5c1.2,2.5-0.7,4.5-2.6,2.7s-2.4-8.9-2.4-8.9l3.5-1.9L95.3,258.4z"/>
<path class="st5" d="M155.4,240c0,0,1.3,3,4.1,3s3.6,2.7,1.2,3.6s-9-2-9-2v-4L155.4,240z"/>
<path class="st4" d="M96.5,113.4c0,0,3.4,5,4.5,8.9c0.4,1.6-0.5,3.3-2.1,3.7c-2.5,0.8-5.2,0.1-7-1.8l-4.1-3.7
	c-1.5-1.7-1.8-4.2-0.8-6.2C88.7,110.5,94.6,110.3,96.5,113.4z"/>
<polygon class="st4" points="89.5,120.4 92.3,136.8 103.4,137.3 96.9,124.5 "/>
<path class="st2" d="M95.3,114.3c-1.6,1-3.3,1.8-5.1,2.3c1.8,0.9,2.9,2.8,2.7,4.8c0,1-0.4,1.9-1.1,2.6c-0.9,0.8-2.2,0.8-3-0.1
	c-0.1-0.1-0.3-0.3-0.4-0.5l-2.7-5c-1.2-1.9-1.2-4.3,0-6.3c0.5-0.8,1-1.6,1.6-2.4c1.5-1.9,5.1-2.2,6.1-4.5c0.3-0.7,1.2-1.1,1.9-0.7
	c0.2,0.1,0.4,0.2,0.5,0.4c1.5,1.9,2.9,5.3,0.8,8C96.3,113.6,95.8,114,95.3,114.3z"/>
<path class="st4" d="M93.5,121c0,0-1.2-2-2.6-1c-1.4,1,0.3,3.9,2.5,3L93.5,121z"/>
<path class="st4" d="M98.5,116.6l2.6,1.2c0.5,0.3,0.7,0.9,0.4,1.4c0,0.1-0.1,0.2-0.2,0.2l-1.8,1.5L98.5,116.6z"/>
<path class="st9" d="M97.9,126.4c-1.3,0.1-2.7-0.2-3.8-0.8c0,0,0.3,4.3,5.7,4.5L97.9,126.4z"/>
<path class="st5" d="M73.5,142.7c14.6-9.6,39.1-11.6,53-2c13.7,9.4,7.1,65.1,7.1,65.1l-28.5,8.6C105.1,214.4,50.1,173.4,73.5,142.7z
	"/>
<path class="st2" d="M100.6,214.9l4.1,10c1.1,5.9-0.4,12-4.1,16.7l-10.3,13.3L96,259l15-11.9c6.2-4.9,9.8-12.4,9.9-20.3v-5.1
	l-1.9-6.5L100.6,214.9z"/>
<path class="st7" d="M90.3,146c0,0,10.8,5.1,9.4,21.5s-1.4,35.6,24.1,34.7v8.6l-16.7,2.5L87.1,194l-1.7-29.6L90.3,146z"/>
<polygon class="st7" points="136.8,197 139.5,199.5 155.6,166.1 135.2,179.7 "/>
<path class="st2" d="M110.5,222.5l5.5,3.6l20.4-6.3c4-1.2,8.3,1,9.5,5c0,0.1,0.1,0.3,0.1,0.4l3.8,15.5l6.9-0.6l-2.2-21
	c-0.8-7.8-7.4-13.8-15.2-13.9l-15.7-0.2L110.5,222.5z"/>
<path class="st10" d="M211.2,147.8l10-6l-14.6-24.4l-77.8,52.4c-11.2-11.2-29.4-11.2-40.6,0.1c-11.2,11.2-11.2,29.4,0.1,40.6
	c11.2,11.2,29.4,11.2,40.6-0.1c8.1-8.1,10.6-20.2,6.4-30.9l48.4-32.6l9.5,14.7l9.8-6.3l-9.6-14.9l9.6-6.4L211.2,147.8z M108.6,207.2
	c-9.4,0-17.1-7.6-17.1-17.1s7.6-17.1,17.1-17.1c9.4,0,17.1,7.6,17.1,17.1C125.6,199.5,118,207.2,108.6,207.2z"/>
<path class="st4" d="M90.6,153.6c1-10.8-12.2-16.8-19.5-8.8c-5.9,6.4-11.5,17.2-10.9,34.9c1.1,36.5,12,45.1,39.6,43.4
	c3.3,0.6,6.7,0.2,9.7-1.1c1.2-0.6,1.7-2.1,1-3.3c-0.3-0.6-0.9-1.1-1.7-1.3c-3.1-0.6-7-1-9.1,0.2c0,0-25.2-8-17.8-37.8
	C81.9,179.7,89.4,166.1,90.6,153.6z"/>
<path class="st5" d="M70.8,144.4c-5.2,4.3-11.6,12.9-11.5,28.7l26.1,2.9c0,0,15.2-25.3,1.3-33.3C81.6,140,75.3,140.6,70.8,144.4z"/>
<path class="st6" d="M70.8,144.4c-5.2,4.3-11.6,12.9-11.5,28.7l26.1,2.9c0,0,15.2-25.3,1.3-33.3C81.6,140,75.3,140.6,70.8,144.4z"/>
<path class="st4" d="M155.6,166.1c0,0,6.2-7.6,9.8-4.5S162.4,174.1,155.6,166.1z"/>
<polygon class="st7" points="60.2,173.2 60.2,180.9 81.9,179.7 83.8,176 "/>
<circle class="st2" cx="112.4" cy="48.8" r="4.9"/>
<circle class="st5" cx="127" cy="48.8" r="4.9"/>
<circle class="st10" cx="140.8" cy="48.8" r="4.9"/>
<path class="st11" d="M234.5,83h-7v-3.6c0-8.6-7-15.6-15.6-15.6c-8.6,0-15.6,7-15.6,15.6c0,0,0,0,0,0V83h-7v-3.6
	c0-12.5,10.1-22.6,22.6-22.6c12.5,0,22.6,10.1,22.6,22.6V83z"/>
<circle class="st12" cx="212.7" cy="96.5" r="5.8"/>
<rect x="209.8" y="99.5" class="st12" width="6.4" height="15.6"/>
<path class="st2" d="M199.3,171.7h25.3c1.9,0,3.4,1.5,3.4,3.4v9.2c0,1.9-1.5,3.4-3.4,3.4h-25.3c-1.9,0-3.4-1.5-3.4-3.4v-9.2
	C195.9,173.2,197.4,171.7,199.3,171.7z"/>
<path class="st13" d="M215.9,174.4h5.9c1.5,0,2.6,1.2,2.6,2.6v0c0,1.5-1.2,2.6-2.6,2.6h-5.9c-1.5,0-2.6-1.2-2.6-2.6v0
	C213.3,175.6,214.5,174.4,215.9,174.4z"/>
<path class="st14" d="M324,249.2c0,0-11.8-3.2-14.4-14.1c0,0,18.2-3.8,18.8,15L324,249.2z"/>
<path class="st15" d="M325.4,248c0,0-8.3-12.9-1.1-25.1c0,0,13.9,8.7,7.8,25.1H325.4z"/>
<path class="st5" d="M327.5,248c0,0,4.3-13.7,17.4-16.4c0,0,2.5,8.9-8.4,16.4H327.5z"/>
<polygon class="st2" points="319,247.7 321.5,264 336.5,264 338.6,247.7 "/>
</svg>
