<?xml version="1.0" encoding="utf-8"?>
<!-- Generator: Adobe Illustrator 23.0.0, SVG Export Plug-In . SVG Version: 6.00 Build 0)  -->
<svg version="1.1" id="Layer_1" xmlns="http://www.w3.org/2000/svg" xmlns:xlink="http://www.w3.org/1999/xlink" x="0px" y="0px"
	 viewBox="0 0 377 269.1" style="enable-background:new 0 0 377 269.1;" xml:space="preserve">
<style type="text/css">
	.st0{opacity:0.45;fill:#E6E6E6;enable-background:new    ;}
	.st1{fill:#C9C9C9;}
	.st2{fill:#E6E6E6;}
	.st3{fill:#24285B;}
	.st4{fill:#A5A5A5;}
	.st5{fill:#E44634;}
	.st6{opacity:8.000000e-02;enable-background:new    ;}
	.st7{fill:#FFD200;}
	.st8{fill:#F4A28C;}
	.st9{opacity:0.31;fill:#CE8172;enable-background:new    ;}
	.st10{fill:#FFFFFF;}
	.st11{opacity:0.19;fill:#FFFFFF;enable-background:new    ;}
	.st12{opacity:0.27;fill:#FFFFFF;enable-background:new    ;}
	.st13{opacity:0.55;fill:#FFFFFF;enable-background:new    ;}
	.st14{opacity:0.33;fill:#FFFFFF;enable-background:new    ;}
	.st15{opacity:0.58;fill:#E44634;enable-background:new    ;}
	.st16{opacity:0.73;fill:#E44634;enable-background:new    ;}
</style>
<title>_</title>
<ellipse class="st0" cx="188.4" cy="233.3" rx="137.9" ry="13.2"/>
<rect x="299.3" y="160.3" class="st1" width="11.6" height="71.3"/>
<rect x="69.1" y="160.3" class="st1" width="11.7" height="71.3"/>
<rect x="57.1" y="154" class="st1" width="265.8" height="6.3"/>
<rect x="53.6" y="145.3" class="st2" width="272.9" height="8.6"/>
<polygon class="st1" points="269.3,125.3 266.5,142.8 284.9,142.8 280.6,125.3 "/>
<rect x="262.3" y="139.7" class="st2" width="25.8" height="5.6"/>
<rect x="232.6" y="77.1" class="st2" width="83.9" height="54.5"/>
<rect x="235.6" y="79.9" class="st3" width="77.5" height="43.7"/>
<circle class="st4" cx="275.5" cy="127.3" r="1.6"/>
<polygon class="st1" points="180.9,125.3 178.1,142.8 196.5,142.8 192.2,125.3 "/>
<rect x="173.9" y="139.7" class="st2" width="25.8" height="5.6"/>
<rect x="144.2" y="77.1" class="st2" width="83.9" height="54.5"/>
<rect x="147.2" y="79.9" class="st3" width="77.5" height="43.7"/>
<circle class="st4" cx="187.1" cy="127.3" r="1.6"/>
<polygon class="st1" points="92.5,125.3 89.7,142.8 108.1,142.8 103.9,125.3 "/>
<rect x="85.5" y="139.7" class="st2" width="25.8" height="5.6"/>
<rect x="55.8" y="77.1" class="st2" width="83.9" height="54.5"/>
<rect x="58.8" y="79.9" class="st3" width="77.5" height="43.7"/>
<circle class="st4" cx="98.7" cy="127.3" r="1.6"/>
<rect x="188.4" y="22.5" class="st2" width="83.9" height="54.5"/>
<rect x="191.4" y="25.4" class="st3" width="77.5" height="43.7"/>
<circle class="st4" cx="231.3" cy="72.8" r="1.6"/>
<rect x="100" y="22.5" class="st2" width="83.9" height="54.5"/>
<rect x="103" y="25.4" class="st3" width="77.5" height="43.7"/>
<circle class="st4" cx="142.9" cy="72.8" r="1.6"/>
<path class="st5" d="M238.4,98.4c0,0-13.1,0.5-19.1,23.7c-3.9,15.2-54.8,16.9-54.8,16.9v5.5h54.6c7.4,0.1,14.3-3.4,18.6-9.4
	c0.7-1,1.3-2.1,1.9-3.2C243.3,124,250.9,102.6,238.4,98.4z"/>
<path class="st6" d="M238.4,98.4c0,0-13.1,0.5-19.1,23.7c-3.9,15.2-54.8,16.9-54.8,16.9v5.5h54.6c7.4,0.1,14.3-3.4,18.6-9.4
	c0.7-1,1.3-2.1,1.9-3.2C243.3,124,250.9,102.6,238.4,98.4z"/>
<path class="st5" d="M226.5,233.1c0,0-0.6,3.1-3.2,3.8s-2.9,3.4-0.4,3.7c2.5,0.3,8.2-3.8,8.2-3.8l-1-4.9L226.5,233.1z"/>
<path class="st5" d="M249,233.1c0,0-0.6,3.1-3.2,3.8s-2.9,3.4-0.4,3.7c2.5,0.3,8.2-3.8,8.2-3.8l-1-4.9L249,233.1z"/>
<rect x="264.9" y="191.5" class="st7" width="7.8" height="41.7"/>
<rect x="264.9" y="191.5" class="st6" width="7.8" height="41.7"/>
<polygon class="st6" points="282.6,147.9 282.6,154 282.5,160.3 210.9,160.3 214.9,154 220.5,145.3 247.2,145.3 "/>
<path class="st7" d="M251.4,168.2c0,0-8.6-56.8,11.4-66.6s52.2-0.7,37.5,69.5l-0.7,7.8c-1,10.5-9.7,18.4-20.2,18.4h-40.5
	c-7.4,0-9.7-10.2-2.9-13.3c2.3-1,4.8-1.8,7.3-2.3c4.2-0.9,7.4-4.5,7.8-8.8L251.4,168.2z"/>
<path class="st8" d="M240.8,70.7c-0.2,2.6,0,5.2,0.5,7.8c0.3,1.3,1.6,2,2.9,1.7c0,0,0,0,0,0c2-0.4,3.6-2,4-4l1.3-4.1
	c0.4-1.7-0.4-3.5-1.9-4.5C244.9,65.7,240.9,67.8,240.8,70.7z"/>
<polygon class="st8" points="248.7,73.2 253.2,87.9 244.9,89.8 245,78.3 "/>
<path class="st8" d="M240.7,73.6l-1.2,1.8c-0.2,0.3-0.2,0.8,0.2,1.1c0.1,0.1,0.2,0.1,0.3,0.1l1.8,0.3L240.7,73.6z"/>
<path class="st9" d="M245,79.8c1.1-0.4,2.1-1.1,2.9-2.1c0,0,0.4,3-3,5.4L245,79.8z"/>
<path class="st7" d="M247.5,72.7l0.4,0.2c0.4,0.1,0.9,0.2,1.3,0.1c0.3,0,0.6,0,0.9-0.1c1.1-0.5,1.1-2.3,1.2-3.4
	c0.2-1.3,0-2.6-0.6-3.7c-1.5-2.4-9.3-4.3-10.9,1.1c-1,3.5,2.3,4.1,4.8,4.1c0.9,0,1.4,0.8,2.1,1.3C246.9,72.4,247.2,72.6,247.5,72.7z
	"/>
<path class="st8" d="M245.4,73.4c0,0,0-1.8,1.4-1.7s1.4,2.7-0.5,3L245.4,73.4z"/>
<path class="st5" d="M243.3,90.2l7.2-1.6c0,0,45-5.5,39.2,36.9c-5.4,39.8-9.4,50.2-9.4,50.2l-40.5,1.4c0,0-2.3-33.7-8.8-42.2
	S211.6,101.3,243.3,90.2z"/>
<path class="st10" d="M240.6,91.2c0,0-3,40.6,9.8,58.6c0,0-0.7-42.8,10.3-61.3C260.7,88.6,250.5,85.7,240.6,91.2z"/>
<path class="st3" d="M238,160.6l-19,19.4c-7.8,8-9.9,20-5.2,30.1l10.7,23.1l5.5-1.4l-5.3-20.7c-2.2-8.4,1.5-17.3,9-21.7l21.8-12.8
	L238,160.6z"/>
<path class="st3" d="M238,160.6l44.6,2.6c0,0-0.1,15.8-5.4,19.4c-2.9,2-13.9,5.9-23,9c-7.5,2.5-11.5,10.7-9,18.2l7.4,22.1l-6.3,1.6
	l-13.5-26.4c-4-7.8-2-17.2,4.7-22.8l13.5-11.3L238,160.6z"/>
<path class="st5" d="M264.7,105.1c-0.4-5.8,3.9-10.8,9.7-11.2c2.3-0.2,4.7,0.5,6.6,1.8c3.2,2.1,5.9,5,7.7,8.4
	c3.8,7.1,5.8,22.9,6.8,35.2c0.8,9.9-4.2,19.3-12.9,24.1l-26.3,14.5l-3.8-4.9l20-15.6c5.2-4.1,6.7-11.3,3.6-17.1
	C271.5,131.6,265.6,118.6,264.7,105.1z"/>
<path class="st11" d="M264.7,105.1c-0.4-5.8,3.9-10.8,9.7-11.2c2.3-0.2,4.7,0.5,6.6,1.8c3.2,2.1,5.9,5,7.7,8.4
	c3.8,7.1,5.8,22.9,6.8,35.2c0.8,9.9-4.2,19.3-12.9,24.1l-26.3,14.5l-3.8-4.9l20-15.6c5.2-4.1,6.7-11.3,3.6-17.1
	C271.5,131.6,265.6,118.6,264.7,105.1z"/>
<path class="st8" d="M252.6,172.9c0,0-9.1,5-4,7.6s7-3.8,7-3.8L252.6,172.9z"/>
<path class="st12" d="M240.6,91.2l-8.1,22.9l6.4,11.1l-2.4,10.7l13.9,14C250.4,149.8,239,139.5,240.6,91.2z"/>
<path class="st3" d="M245,89.6c0-1.2,0.8-1,1.9-1.3s2.3-1.6,3.3-0.5c1.9,2.1-1.4,6-1.4,6h-3.1C245.2,92.5,245,91,245,89.6z"/>
<path class="st3" d="M245.6,93.9h3.1c0,0,0.3,23.8,2.3,37.8l-0.5,18.1c-4.2-6-6.8-12.9-7.7-20.1C242.8,129.7,243.1,107.4,245.6,93.9
	z"/>
<path class="st5" d="M240.6,91.2l3.8,2.7l3-4.4l3.1,3.9l10.2-4.8C260.7,88.6,248.4,83.6,240.6,91.2z"/>
<path class="st13" d="M240.6,91.2l3.8,2.7l3-4.4l3.1,3.9l10.2-4.8C260.7,88.6,248.4,83.6,240.6,91.2z"/>
<path class="st12" d="M260.7,88.6l1.7,30.3l-7.9,4.7l4.7,9.9l-8.7,16.4C250.5,149.8,249.9,106.8,260.7,88.6z"/>
<path class="st8" d="M164.6,140.2c0,0-8.8-1.6-7.9,4.3h7.9V140.2z"/>
<polygon class="st7" points="264.9,226.6 272.6,226.6 285.1,240.5 253.5,240.5 "/>
<polygon class="st14" points="264.9,226.6 272.6,226.6 285.1,240.5 253.5,240.5 "/>
<path class="st15" d="M105.7,220.8c0,0-7.9-2.2-9.6-9.5c0,0,12.2-2.5,12.6,10.2L105.7,220.8z"/>
<path class="st16" d="M106.7,220.1c0,0-5.5-8.7-0.7-16.9c0,0,9.3,5.9,5.2,16.9L106.7,220.1z"/>
<path class="st5" d="M108.1,220.1c0,0,2.9-9.2,11.7-11c0,0,1.7,6-5.7,11H108.1z"/>
<polygon class="st3" points="102.4,219.9 104,230.8 114.1,230.9 115.6,219.9 "/>
</svg>
