<svg xmlns="http://www.w3.org/2000/svg" viewBox="0 0 710 200"><title>logo_1light</title><g id="Calque_2" data-name="Calque 2"><g id="Calque_1-2" data-name="Calque 1"><rect width="200" height="200" rx="20" fill="#e44634"/><path d="M146.90271,43.13485c13.33891,7.71565,31.64722,10.72344,39.36286,20.40069,7.84642,9.808,5.10017,26.28549,1.30774,43.80916-3.79243,17.65444-8.50029,36.35506-20.53146,48.77856s-31.25489,18.70063-53.48641,23.01615c-22.36229,4.18476-47.73237,6.27714-64.07907-4.70785-16.3467-11.11575-23.67-35.30887-30.99335-59.37122C11.29048,91.12877,4.09793,67.58952,13.38285,52.55055s35.04733-21.44687,55.0557-27.07014c19.87758-5.62326,34.00113-10.46189,45.24767-6.53868C125.06352,22.73417,133.433,35.41921,146.90271,43.13485Z" fill="#cc3e33"/><text transform="translate(65.85938 141.54443)" font-size="119.24449" fill="#1c1c1e" font-family="CooperHewitt-Book, Cooper Hewitt"><tspan letter-spacing="-0.01999em">P</tspan><tspan x="65.94287" y="0" letter-spacing="-0.02398em">r</tspan><tspan x="102.79053" y="0">osit </tspan><tspan x="327.20313" y="0" font-family="CooperHewitt-Light, Cooper Hewitt" font-weight="300">Boo</tspan><tspan x="523.95508" y="0" font-family="CooperHewitt-Light, Cooper Hewitt" font-weight="300" letter-spacing="-0.01199em">s</tspan><tspan x="584.53125" y="0" font-family="CooperHewitt-Light, Cooper Hewitt" font-weight="300">t</tspan></text></g></g></svg>