<?xml version="1.0" encoding="utf-8"?>
<!-- Generator: Adobe Illustrator 23.0.0, SVG Export Plug-In . SVG Version: 6.00 Build 0)  -->
<svg version="1.1" id="Layer_1" xmlns="http://www.w3.org/2000/svg" xmlns:xlink="http://www.w3.org/1999/xlink" x="0px" y="0px"
	 viewBox="0 0 406 306" style="enable-background:new 0 0 406 306;" xml:space="preserve">
<style type="text/css">
	.st0{fill:#24285B;}
	.st1{fill:#E44634;}
	.st2{opacity:0.39;fill:#F9F9FB;enable-background:new    ;}
	.st3{opacity:0.44;fill:#FFFFFF;enable-background:new    ;}
	.st4{fill:#F4A28C;}
	.st5{opacity:0.31;fill:#CE8172;enable-background:new    ;}
	.st6{opacity:8.000000e-02;enable-background:new    ;}
	.st7{fill:#FFD200;}
	.st8{fill:#FFFFFF;}
	.st9{fill:#F9F9FB;}
</style>
<path class="st0" d="M281.8,221c-4.6-1.5-17.4-10.7-29.8-19.5c-10.8-7.7-21.9-15.7-27-18.1c-8.5-4.1-13.2-3.6-14.7-3.3l15.9,13.2
	l-0.6,0.8l-12.4-10.3c1.8,3.6,4.8,10.2,3,14c-0.7,1.5-2.2,2.5-3.8,2.7c-1.3,0.3-2.7-0.1-3.6-1.1c-1.5-1.7-1.7-5.2-1.3-8.6
	c-1.5,3.5-3.4,7-5.8,7.7c-1.4,0.4-2.8,0-3.8-1.1c-2-1.8-2.8-3.8-2.5-5.9c1.1-6.5,13.1-11.7,14-12.2l0,0l0,0l0,0
	c0.2-0.1,5.1-2,16,3.2c5.1,2.4,15.8,10.1,27.1,18.2c12.3,8.8,25,17.9,29.5,19.4L281.8,221z M209.6,184.5c-0.9,3.8-2.4,11.6-0.1,14.3
	c0.7,0.7,1.7,1,2.7,0.8c1.3-0.1,2.5-0.9,3-2.1c2.2-4.8-4.2-15.3-4.3-15.4l-1-1.7h-0.1c-0.1,0-12.4,5.4-13.5,11.4
	c-0.3,1.8,0.4,3.4,2.1,5c0.7,0.8,1.8,1.1,2.8,0.9c3.2-1,5.9-8.5,7.2-13.1c0.3-1.3,0.6-2.2,0.6-2.3l1,0.3
	C210.1,182.4,209.9,183.3,209.6,184.5z"/>
<path class="st1" d="M154.7,255.4c0,0,1.7,3.5,5,3.5c3.3,0,4.5,3,1.6,4.2s-10.9-1.9-10.9-1.9l-0.3-6.1L154.7,255.4z"/>
<path class="st1" d="M120.7,255.4c0,0-1.7,3.5-5,3.5c-3.3,0-4.5,3-1.6,4.2s10.9-1.9,10.9-1.9l0.3-6.1L120.7,255.4z"/>
<ellipse class="st2" cx="204.3" cy="262.4" rx="139.4" ry="12.1"/>
<path class="st1" d="M137.8,77c0,0,31.5,3.9,30.4,46.9s38,51.5,38,51.5l-4.1,9.9c0,0-29.8-5-46.9-34S137.8,77,137.8,77z"/>
<path class="st3" d="M137.8,77c0,0,31.5,3.9,30.4,46.9s38,51.5,38,51.5l-4.1,9.9c0,0-29.8-5-46.9-34S137.8,77,137.8,77z"/>
<polygon class="st4" points="130.2,54.3 124.4,76.2 136.7,78.6 136,61.7 "/>
<path class="st5" d="M136.3,65.4c-1.5-0.6-2.8-1.5-3.8-2.8c0,0-0.3,4.2,3.9,8.7L136.3,65.4z"/>
<path class="st1" d="M123.4,75.9l15.6,1.3c0,0,30.8,9.1,29.6,38.1c-1.2,29-4.1,64.5-4.1,64.5l-41.5,5.4
	C123.1,185.2,54.1,91.4,123.4,75.9z"/>
<path class="st6" d="M115,92.3c0,0,16.5,9.4,15.5,27s-5.2,37.6,13,35.6s23.3-7.8,23.3-7.8l-2.3,32.7l-41.5,5.4l-3.7-5.4
	C119.3,179.8,84.2,116.9,115,92.3z"/>
<path class="st7" d="M191.1,127.6l-5.4-1.8c-1.4-0.5-2.2-2-1.7-3.4l4.5-13.9c0.5-1.4,2-2.2,3.4-1.7l5.4,1.8c1.4,0.5,2.2,2,1.7,3.4
	l-4.5,13.9C194,127.3,192.5,128.1,191.1,127.6z"/>
<path class="st4" d="M182,134.1c0,0,9.9-7,7.5-11.4c-2.4-4.4-12.2,5.7-12.2,5.7L182,134.1z"/>
<path class="st0" d="M123.1,185.2l41.5-5.4l-7.8,76.1H147c0,0,0.7-39-5.2-50.6C136,193.7,123.1,185.2,123.1,185.2z"/>
<path class="st0" d="M123.1,185.2l-6.1,70.7h10.6c0,0,7.4-53.6,26.4-67.4L123.1,185.2z"/>
<path class="st4" d="M143.2,54.7c0,0-1.8,6.7-4.5,10.6c-1.1,1.6-3.3,2-4.8,0.9c0,0,0,0,0,0c-1.9-1.4-4.2-3.8-3.7-7.5l0.1-6.4
	c0.3-2.6,2.3-4.7,4.9-5.3C139.8,45.7,144.5,50.7,143.2,54.7z"/>
<path class="st0" d="M141.5,54.4c-2-0.7-4-1.5-5.8-2.6c0.5,2.2-0.3,4.6-2.2,5.9c-1.8,1.4-4.3,1.3-6-0.2l3.2-8.3
	c0.8-2.4,3-4.2,5.5-4.7c1.1-0.2,2.2-0.3,3.3-0.3c2.8-0.1,5.7,2.8,8.5,2c0.9-0.3,1.8,0.2,2.1,1.1c0.1,0.3,0.1,0.5,0,0.8
	c-0.6,2.7-2.5,6.5-6.4,6.6C142.9,54.7,142.2,54.6,141.5,54.4z"/>
<path class="st4" d="M134.3,57.7c0,0,0.9-2.5-1.1-3c-1.9-0.5-3.2,3.1-0.8,4.4L134.3,57.7z"/>
<path class="st4" d="M141.8,58.8l0.9,3.2c0.2,0.6-0.2,1.2-0.8,1.4c-0.2,0-0.3,0.1-0.5,0l-2.7-0.4L141.8,58.8z"/>
<path class="st1" d="M116.2,94.9c-1.8-5.8-8-9.1-13.8-7.2c-2.2,0.7-4.1,2-5.5,3.8c-4.6,6-8.5,14.8-7.5,27.2
	c2.3,26.7,10.6,57.5,29.4,53.6s64.8-36.3,64.8-36.3l-6.3-7.8c0,0-38.5,21-53,18.7C112.7,145.1,122.8,116.3,116.2,94.9z"/>
<path class="st3" d="M116.2,94.9c-1.8-5.8-8-9.1-13.8-7.2c-2.2,0.7-4.1,2-5.5,3.8c-4.6,6-8.5,14.8-7.5,27.2
	c2.3,26.7,10.6,57.5,29.4,53.6s64.8-36.3,64.8-36.3l-6.3-7.8c0,0-38.5,21-53,18.7C112.7,145.1,122.8,116.3,116.2,94.9z"/>
<path class="st8" d="M187.7,51.7h38.5c1.8,0,3.2,1.4,3.2,3.2v28.6c0,1.8-1.4,3.2-3.2,3.2h-38.5c-1.8,0-3.2-1.4-3.2-3.2V54.9
	C184.5,53.1,186,51.7,187.7,51.7z"/>
<path class="st0" d="M282.6,214.5c0,0,3.8-5.2,9.9-3c5.1,1.9,7.2,6.2,11.3,6c1.5-0.1,2.8,1.1,2.8,2.6c0,0.2,0,0.4,0,0.6
	c-0.4,2.4-1.9,4.9-6.5,3.7c-8.2-2.2-5.1,6.5-12.6,3.1C279.9,224.1,278.2,221.4,282.6,214.5z"/>
<polygon class="st0" points="285.1,215.5 279.5,205.8 288.5,212.9 "/>
<polygon class="st0" points="287.9,214 286.1,202.9 291.9,212.8 "/>
<circle class="st8" cx="291.8" cy="215.3" r="1.1"/>
<polygon class="st7" points="280.8,217.9 293.8,227.7 290.7,231.3 277.4,221.5 "/>
<path class="st0" d="M277.4,221.5c0,0-11,10.4-24.3,6.8s-19.2,8.3-14.7,13.9c4.5,5.7,57.9,14.3,52.3-11"/>
<path class="st0" d="M244.3,234.9c0,0-18.2-0.3-17.8-23.9c0,0-13.7,26.4,17.8,28.5V234.9z"/>
<path class="st0" d="M258.2,241.5c0,0,4.8,11.9-7.9,12.2c-12.7,0.3-9.6,8.1-9.6,8.1h-3.7c0,0-2.2-9,3.2-11.4
	c5.4-2.4-1.7-8.1-1.7-8.1S246.3,228.4,258.2,241.5z"/>
<path class="st0" d="M291.1,234.9l1,5.6c0.8,4.3,3.1,8.1,6.5,10.8l5.7,4.6l-1.4,1.7l-11.7-5.1c-1.6-0.7-2.9-1.8-3.7-3.3l-5.5-9.6
	L291.1,234.9z"/>
<path class="st0" d="M289.8,237.9l-2.6,5.1c-2,3.8-2.5,8.3-1.5,12.5l1.7,7.1l-2.1,0.4l-6.1-11.2c-0.8-1.5-1.1-3.2-0.9-4.9l1.5-11
	L289.8,237.9z"/>
<path class="st0" d="M265.8,244.9c0,0,0.7,7.2-3.6,11.2s-3.6,6.9-3.6,6.9h-3.2c-0.4-1.6-0.4-3.3,0-4.9c0.7-3.1-0.1-6.3-2-8.8
	l-2.9-3.8L265.8,244.9z"/>
<path class="st4" d="M205.5,176.9c0,0,10.9-1.2,10.6,4.3c-0.3,5.4-13.1,1.5-13.1,1.5L205.5,176.9z"/>
<path class="st9" d="M213.2,70.6h-0.1v-5.3c0-2.7-2.1-4.8-4.7-5c0.4-0.3,0.6-0.7,0.6-1.2c0-0.9-0.7-1.6-1.6-1.6
	c-0.9,0-1.6,0.7-1.6,1.6c0,0.5,0.2,0.9,0.6,1.2c-2.6,0.1-4.7,2.3-4.7,4.9v5.3l0,0c-1,0-1.8,0.8-1.8,1.8v0.6c0,1,0.8,1.8,1.8,1.8
	h11.6c1,0,1.8-0.8,1.8-1.8l0,0v-0.6C215,71.4,214.2,70.6,213.2,70.6L213.2,70.6z"/>
<path class="st9" d="M205.2,75.7c-0.1,0.3-0.2,0.6-0.2,0.8c-0.1,1.3,0.9,2.4,2.2,2.5c1.3,0.1,2.4-0.9,2.5-2.2c0-0.1,0-0.2,0-0.3
	c0-0.3-0.1-0.6-0.2-0.8H205.2z"/>
<polygon class="st8" points="189.8,84.1 193.5,97.7 197,84.1 "/>
<circle class="st0" cx="228.8" cy="85.7" r="7.6"/>
<path class="st8" d="M230.2,82.2v7.1h-1.5v-5.7l0,0l-1.6,1v-1.3l1.7-1.1H230.2z"/>
</svg>
